<svg xmlns="http://www.w3.org/2000/svg" width="791.508" height="871.442" viewBox="0 0 791.508 871.442">
  <g id="post_logo" transform="translate(-0.125 -196.908)">
    <path id="Path_1" data-name="Path 1" d="M424.791,271.486c-7.236-3.984-18.09-3.984-28.944,0-32.562,11.953-72.361,67.732-97.687,135.464C280.07,454.76,265.6,506.555,265.6,546.4L138.967,614.129c-3.618,0-3.618,3.984-3.618,3.984h0L1.482,948.8c-3.618,11.953,0,27.89,10.854,31.874l209.845,107.574c10.854,3.984,25.326,0,28.944-11.953L384.992,745.609h0V737.64l-39.8-151.4c25.326-23.905,50.652-67.732,72.361-119.527C435.645,422.886,446.5,379.06,446.5,343.2Q451.926,289.415,424.791,271.486ZM305.4,630.066c-3.618,11.953-18.09,15.937-28.944,11.953S261.98,622.1,265.6,610.145c3.618-7.968,7.236-11.953,14.472-11.953l10.854,11.953c3.618,3.984,10.854,3.984,14.472,3.984S309.014,622.1,305.4,630.066ZM430.587,341.691c-3.489,30.735-10.466,73-27.91,111.416-17.444,42.261-38.377,80.681-59.31,99.89l-6.978-23.052c0-11.526-20.933-19.21-27.91-15.368L287.546,526.1v-3.842c3.489-30.735,10.466-73,27.91-111.416,24.422-61.471,59.31-111.416,87.22-122.942,6.978-3.842,10.466-3.842,13.955,0C427.1,291.746,430.587,310.956,430.587,341.691Z" transform="translate(0 -21.396)" fill="#d53f8c"/>
    <g id="Group_1" data-name="Group 1" transform="translate(79.923 215.428)" style="isolation: isolate">
      <path id="Path_2" data-name="Path 2" d="M276.751,366.755q0,59.166-15.738,99.208-21.165,55.58-66.752,55.58-29.853,0-52.1-30.479-3.8,1.793-3.8,37.053,0,77.683,7.055,109.965.535,2.984,5.156,14.343,4.6,11.346,4.613,13.746,0,9.553-10.854,9.562-13.025,0-18.181-4.184T117.2,644.057q-3.256-19.722-3.256-31.077v-151.8q0-20.912,1.934-56.178,1.921-41.236,2.408-56.177.535-16.136,0-41.834V264.56q0-41.237,19.538-41.237,9.768,0,9.769,7.769,0,14.946-2.171,43.627t-2.171,43.03h2.17q12.479-18.517,24.965-37.651,14.653-20.913,36.361-20.917,36.353,0,54.813,35.858Q276.742,323.725,276.751,366.755Zm-27.135,2.391q0-31.67-5.97-54.384Q234.411,281.3,213.8,281.293q-15.2,0-36.9,29.284-19,25.7-26.592,52.592-5.978,20.324-9.769,59.763-2.175,28.686-2.171,27.491c0,1.2,1.62,3.193,4.859,5.976a79.809,79.809,0,0,1,6.479,5.379q8.649,13.755,17.553,27.79t26.737,14.045q29.7,0,44.824-53.787a295.612,295.612,0,0,0,10.8-80.681Z" transform="translate(-113.939 -223.323)"/>
    </g>
    <g id="Group_2" data-name="Group 2" transform="translate(474.33 269.939)" style="isolation: isolate">
      <path id="Path_3" data-name="Path 3" d="M843.08,531.645q0,20.969-28.763,35.344-23.888,11.374-46.13,11.383-14.653,0-33.647-7.825-10.316-4.818-33.105-25.287-24.969-22.271-24.965-30.713,0-18.643,20.08-16.855h3.256q1.082,18.125,34.733,39.248,30.387,19.33,48.843,19.32,23.875,0,23.88-17.976,0-10.771-29.306-29.947-40.169-25.745-54.813-41.33-29.853-31.74-29.849-73.089a126.727,126.727,0,0,1,14.653-59.306q16.816-33.533,42.331-33.542,18.443,0,44.5,18.826t30.392,37.95q4.337,16.136,4.342,37.651,0,23.308-7.6,50.8a16.965,16.965,0,0,1-11.4,4.183q-3.8,0-11.939-3.287t-8.141-6.873q0,2.4,5.97-13.148,4.337-10.155,4.342-37.053,0-63.942-36.361-63.947-19,0-30.392,28.154a116.048,116.048,0,0,0-9.769,46.13q0,29.359,30.934,56.906,10.3,9.6,56.984,41.34Q843.08,519.669,843.08,531.645Z" transform="translate(-676.469 -301.07)"/>
    </g>
    <g id="Group_3" data-name="Group 3" transform="translate(671.152 196.908)" style="isolation: isolate">
      <path id="Path_4" data-name="Path 4" d="M1070.616,347.034q-4.351,3.586-20.623,5.976-17.909,2.4-20.623,4.184-.547,6.583-.543,66.337,0,46.616,1.085,62.752,0,6.583,2.714,20.917t2.714,22.112c0,3.194-1.815,6.369-5.428,9.562s-6.877,4.778-9.769,4.781q-10.862,0-17.367-24.5a144.584,144.584,0,0,1-4.342-34.065V360.78q-3.18-2.984-24.328,0-16.918,2.4-16.918-13.746,0-22.705,43.96-20.917l7.055-108.172a19.964,19.964,0,0,0-1.357-5.678,19.486,19.486,0,0,1-1.356-5.678q0-3.586,4.341-6.873a14.176,14.176,0,0,1,10.312-2.689q18.991,1.793,18.995,20.918,0,14.946-3.8,44.822t-3.8,44.225a83.671,83.671,0,0,0,1.085,13.746l29.849-1.793q15.188,0,15.2,13.148Q1077.671,341.66,1070.616,347.034Z" transform="translate(-957.19 -196.908)"/>
    </g>
    <g id="Group_4" data-name="Group 4" transform="translate(78.7 772.928)" style="isolation: isolate">
      <path id="Path_5" data-name="Path 5" d="M119.346,1199.633l-7.152-3.526,72.216-177.639,7.152,3.526Z" transform="translate(-112.194 -1018.468)" fill="#ff9dd0"/>
    </g>
    <g id="Group_5" data-name="Group 5" transform="translate(172.034 631.397)" style="isolation: isolate">
      <path id="Path_6" data-name="Path 6" d="M252.467,918.74l-7.153-3.526L285.4,816.606l7.153,3.526Z" transform="translate(-245.314 -816.606)" fill="#ff9dd0"/>
    </g>
    <g id="Group_6" data-name="Group 6" transform="translate(159.878 747.486)" style="isolation: isolate">
      <path id="Path_7" data-name="Path 7" d="M235.129,1163.345l-7.153-3.526,72.216-177.638,7.153,3.526Z" transform="translate(-227.976 -982.181)" fill="#ff9dd0"/>
    </g>
    <g id="Group_7" data-name="Group 7" transform="translate(253.509 749.91)" style="isolation: isolate">
      <path id="Path_8" data-name="Path 8" d="M368.672,1087.771l-7.152-3.526,40.087-98.607,7.152,3.526Z" transform="translate(-361.519 -985.638)" fill="#ff9dd0"/>
    </g>
  </g>
</svg>
